# xmcd CD database file
#
# Track frame offsets:
#	182
#	13537
#	26750
#	41662
#	54345
#	67075
#	80037
#	94220
#	108975
#	120120
#	135750
#	146805
#	161750
#	176355
#	189535
#	202950
#
# Disc length: 2880 seconds
#
# Revision: 2
# Processed by: cddbd v1.5.1PL0 Copyright (c) Steve Scherf et al.
# Submitted via: CDex 1.51
#
DISCID=d30b3e10
DTITLE=Django Reinhardt - Historical Recordings Vol.2
DYEAR=1900
DGENRE=Jazz
TTITLE0=Festival Swing
TTITLE1=Dinah
TTITLE2=Petite Lili
TTITLE3=Stockholm
TTITLE4=Sur les Bords de L'Alamo
TTITLE5=Dinette
TTITLE6=Festival Swing
TTITLE7=Ninouche
TTITLE8=Oiseaux des Iles
TTITLE9=Crepuscule
TTITLE10=Hungaria
TTITLE11=Oh, Lady Be Good
TTITLE12=Pour Terminer
TTITLE13=De Mulle Part
TTITLE14=All Of Me
TTITLE15=Swing 42
EXTD=
EXTT0=
EXTT1=
EXTT2=
EXTT3=
EXTT4=
EXTT5=
EXTT6=
EXTT7=
EXTT8=
EXTT9=
EXTT10=
EXTT11=
EXTT12=
EXTT13=
EXTT14=
EXTT15=
PLAYORDER=
